# xmcd
#
# Track frame offsets:
#	150
#	19418
#	45440
#	65560
#	83997
#	112020
#	131178
#	148204
#	166476
#	181500
#	201946
#	233233
#	252360
#	274886
#	295058
#	313670
#	329369
#
# Disc length: 4473 seconds
#
# Revision: 1
# Processed by: cddbd v1.4PL0 Copyright (c) Steve Scherf et al.
# Submitted via: audiograbber 1.80.04
#
DISCID=06117711
DTITLE=LIONEL RICHIE - Love Songs
DYEAR=2001
DGENRE=Soul
TTITLE0=Love Will Conquer All
TTITLE1=Love, Oh Love
TTITLE2=Endless Love (Feat. Diana Ross)
TTITLE3=My Love
TTITLE4=Love Will Find A Way
TTITLE5=Piece Of My Heart
TTITLE6=Penny Lover
TTITLE7=Piece Of Love
TTITLE8=Truly
TTITLE9=Still In Love
TTITLE10=Lovers At First Sight
TTITLE11=Angel
TTITLE12=Ordinary Girl
TTITLE13=Tender Heart
TTITLE14=Wasted Time
TTITLE15=Sweet Love
TTITLE16=Just Put Some Love In Your Heart
EXTD=
EXTT0=
EXTT1=
EXTT2=
EXTT3=
EXTT4=
EXTT5=
EXTT6=
EXTT7=
EXTT8=
EXTT9=
EXTT10=
EXTT11=
EXTT12=
EXTT13=
EXTT14=
EXTT15=
EXTT16=
PLAYORDER=
